<mxfile host="app.diagrams.net" modified="2023-10-27T07:29:56.112Z" agent="Mozilla/5.0 (Windows NT 10.0; Win64; x64) AppleWebKit/537.36 (KHTML, like Gecko) Chrome/118.0.0.0 Safari/537.36" version="22.0.8" etag="xo0dduHehjzsowlaqsF_" type="github">
  <diagram name="Page-1" id="fTRpPbHVq6ZoX27CSC7A">
    <mxGraphModel>
      <root>
        <mxCell id="0" />
        <mxCell id="1" parent="0" />
      </root>
    </mxGraphModel>
  </diagram>
</mxfile>
